<?xml version="1.0" encoding="UTF-8"?>
<svg id="Layer_1" data-name="Layer 1" xmlns="http://www.w3.org/2000/svg" viewBox="0 0 181.31 175.14">
  <defs>
    <style>
      .cls-1 {
        fill: #00944d;
      }

      .cls-2 {
        fill: #fed600;
      }
    </style>
  </defs>
  <path class="cls-2" d="M140.83,37.41c27.7,27.7,27.7,72.61,0,100.3-27.7,27.7-72.61,27.7-100.31,0-27.7-27.69-27.7-72.6,0-100.3,27.7-27.7,72.61-27.7,100.31,0Z"/>
  <g>
    <path class="cls-1" d="M27.31,27.33C-1.98,56.62-7.61,100.59,10.38,135.54.11,109.73,5.42,79.16,26.31,58.27c22.97-22.96,57.63-27.09,84.81-12.41l-13.47,42.54,30.13-30.13,2.07-2.07,28.87-28.87C122.43-8.96,63.6-8.96,27.31,27.33Z"/>
    <path class="cls-1" d="M154,147.81c29.29-29.29,34.92-73.26,16.93-108.22,10.26,25.81,4.96,56.39-15.93,77.28-22.97,22.96-57.63,27.09-84.81,12.41l13.47-42.54-30.13,30.13-2.07,2.07-28.87,28.86c36.29,36.29,95.13,36.29,131.41,0Z"/>
  </g>
</svg>