<?xml version="1.0" encoding="UTF-8"?>
<svg id="Layer_1" data-name="Layer 1" xmlns="http://www.w3.org/2000/svg" viewBox="0 0 343.86 110.76">
  <defs>
    <style>
      .cls-1 {
        fill: #231f20;
      }

      .cls-2 {
        fill: #00944d;
      }

      .cls-3 {
        fill: #fed600;
      }
    </style>
  </defs>
  <g>
    <path class="cls-3" d="M82.34,31.44c14.27,14.27,14.27,37.41,0,51.68-14.27,14.27-37.41,14.27-51.68,0-14.27-14.27-14.27-37.41,0-51.68,14.27-14.27,37.41-14.27,51.68,0Z"/>
    <g>
      <path class="cls-2" d="M23.85,26.24c-15.09,15.09-17.99,37.75-8.72,55.76-5.29-13.3-2.55-29.05,8.21-39.82,11.83-11.83,29.69-13.96,43.7-6.39l-6.94,21.92,15.53-15.52,1.07-1.07,14.87-14.87c-18.7-18.7-49.01-18.7-67.71,0Z"/>
      <path class="cls-2" d="M89.12,88.32c15.09-15.09,17.99-37.75,8.72-55.76,5.29,13.3,2.55,29.05-8.21,39.82-11.83,11.83-29.69,13.96-43.7,6.39l6.94-21.92-15.52,15.53-1.07,1.07-14.87,14.87c18.7,18.7,49.01,18.7,67.71,0Z"/>
    </g>
  </g>
  <g>
    <g>
      <path class="cls-2" d="M182.56,73.61c0,.22-.07.4-.22.55-.15.22-.33.33-.55.33h-56.75c-1.24-.22-2.37-.84-3.38-1.86-1.24-1.16-1.93-2.56-2.07-4.2s.25-3.15,1.2-4.53c0-.07.04-.11.11-.11l34.49-36.67h-18.12c-2.26,0-4.53-.2-6.82-.6-2.29-.4-4.28-1.44-5.95-3.11-1.46-1.53-2.4-3.26-2.84-5.18-.44-1.93-.69-3.66-.76-5.18,0-.22.07-.4.22-.55s.33-.22.55-.22h16.81c3.13,0,6.33.02,9.6.06,3.27.04,6.48.05,9.6.05h16.59c1.89,0,3.51.67,4.86,2.02,1.35,1.35,2.02,2.97,2.02,4.86s-.65,3.49-1.96,4.8c-2.76,2.91-5.2,5.49-7.31,7.75-2.11,2.26-4.48,4.77-7.09,7.53-2.62,2.77-5.15,5.44-7.59,8.02-2.44,2.58-4.69,4.97-6.77,7.15-2.07,2.18-3.62,3.82-4.64,4.91h20.19c2.25,0,4.55.22,6.88.65,2.33.44,4.33,1.49,6,3.16,1.45,1.46,2.4,3.17,2.84,5.13.44,1.96.73,3.71.87,5.24Z"/>
      <path class="cls-2" d="M263.98,12.17c.22,0,.4.07.55.22.14.15.22.33.22.55v30.34c0,5.67-1.13,10.79-3.38,15.33-2.25,4.55-5.46,8.17-9.6,10.86-2.4,1.6-5.29,2.8-8.68,3.6-3.38.8-7.51,1.24-12.39,1.31h-.44c-5.39.07-9.93-.29-13.64-1.09-3.71-.8-6.84-2.04-9.39-3.71-4.15-2.69-7.33-6.33-9.55-10.91-2.22-4.58-3.37-9.71-3.44-15.39V13.04c0-.22.07-.4.22-.55.29-.14.47-.22.55-.22,1.67.07,3.62.33,5.84.76,2.22.44,4.16,1.38,5.84,2.84,1.89,1.68,3.07,3.66,3.55,5.95.47,2.29.71,4.57.71,6.82v14.63c0,5.6,1.27,9.57,3.82,11.89,1.24,1.24,2.95,2.22,5.13,2.95,2.18.73,4.91,1.13,8.19,1.2,3.93.07,7.15-.22,9.66-.87,2.51-.65,4.49-1.6,5.95-2.84,1.53-1.24,2.64-2.84,3.33-4.8.69-1.96,1.04-4.51,1.04-7.64v-14.62c0-2.25.25-4.51.76-6.77.51-2.25,1.71-4.22,3.6-5.89.8-.73,1.69-1.33,2.67-1.8.98-.47,2-.84,3.05-1.09,1.05-.25,2.07-.44,3.06-.55.98-.11,1.91-.2,2.78-.27Z"/>
      <path class="cls-2" d="M338.52,59.64c.14.07.22.26.22.55v.22c-.15,1.53-.44,3.26-.87,5.18-.44,1.93-1.38,3.62-2.84,5.08-1.67,1.67-3.64,2.71-5.89,3.11-2.26.4-4.51.6-6.77.6h-40.38c-1.02,0-1.89-.36-2.62-1.09-.73-.73-1.09-1.6-1.09-2.62V13.04c0-.07.07-.25.22-.55.29-.14.47-.22.55-.22.87.07,1.8.16,2.78.27.98.11,2,.29,3.06.55,1.05.26,2.07.62,3.06,1.09s1.91,1.07,2.78,1.8c1.89,1.68,3.07,3.66,3.55,5.95.47,2.29.71,4.53.71,6.71v30.67h43c.22,0,.4.11.55.33Z"/>
    </g>
    <g>
      <path class="cls-1" d="M121.02,85.47h13.84v3.57h-8.66v2.66h8.04v3.41h-8.04v3.3h8.91v3.78h-14.09v-16.71Z"/>
      <path class="cls-1" d="M159.88,85.47h4.82l6.29,9.25v-9.25h4.87v16.71h-4.87l-6.26-9.18v9.18h-4.86v-16.71Z"/>
      <path class="cls-1" d="M201.23,85.47h13.84v3.57h-8.66v2.66h8.04v3.41h-8.04v3.3h8.91v3.78h-14.09v-16.71Z"/>
      <path class="cls-1" d="M240.12,102.19v-16.71h8.61c1.6,0,2.82.14,3.66.41.84.27,1.52.78,2.04,1.52.52.74.77,1.64.77,2.71,0,.93-.2,1.73-.59,2.4-.4.67-.94,1.22-1.63,1.64-.44.27-1.04.49-1.81.66.61.21,1.06.41,1.34.62.19.14.46.43.83.88.36.45.6.79.72,1.04l2.5,4.84h-5.84l-2.76-5.11c-.35-.66-.66-1.09-.94-1.29-.37-.26-.79-.39-1.27-.39h-.46v6.78h-5.19ZM245.3,92.25h2.18c.24,0,.69-.08,1.37-.23.34-.07.62-.24.84-.53.22-.28.33-.6.33-.97,0-.54-.17-.95-.51-1.24-.34-.29-.98-.43-1.93-.43h-2.27v3.4Z"/>
      <path class="cls-1" d="M288.14,96.13v-3.48h7.98v7.13c-1.53,1.04-2.88,1.75-4.05,2.13-1.17.38-2.57.57-4.18.57-1.98,0-3.6-.34-4.85-1.01-1.25-.68-2.22-1.68-2.91-3.02-.69-1.34-1.03-2.87-1.03-4.6,0-1.82.38-3.41,1.13-4.76.75-1.35,1.86-2.37,3.31-3.07,1.13-.54,2.66-.81,4.57-.81s3.23.17,4.14.5c.92.33,1.68.85,2.28,1.56.6.7,1.06,1.59,1.36,2.67l-4.98.89c-.21-.63-.55-1.11-1.04-1.45-.49-.33-1.12-.5-1.88-.5-1.13,0-2.03.39-2.71,1.18-.67.79-1.01,2.03-1.01,3.73,0,1.81.34,3.1,1.02,3.88.68.78,1.63,1.16,2.84,1.16.58,0,1.13-.08,1.65-.25.53-.17,1.12-.45,1.8-.86v-1.57h-3.46Z"/>
      <path class="cls-1" d="M319.44,85.47h5.74l3.37,5.64,3.37-5.64h5.71l-6.5,9.71v7h-5.18v-7l-6.51-9.71Z"/>
    </g>
  </g>
</svg>